<?xml version="1.0" encoding="utf-8"?>
<!-- Generator: Adobe Illustrator 17.0.0, SVG Export Plug-In . SVG Version: 6.00 Build 0)  -->
<!DOCTYPE svg PUBLIC "-//W3C//DTD SVG 1.1//EN" "http://www.w3.org/Graphics/SVG/1.1/DTD/svg11.dtd">
<svg version="1.1" id="레이어_1" xmlns="http://www.w3.org/2000/svg" xmlns:xlink="http://www.w3.org/1999/xlink" x="0px"
	 y="0px" width="31.88px" height="32px" viewBox="0 0 31.88 32" enable-background="new 0 0 31.88 32" xml:space="preserve">
<circle fill="#61D377" cx="15.94" cy="16" r="15.94"/>
<path fill="#FAFDFA" d="M27.254,22.785c-0.049,0.683-0.476,1.295-1.243,1.644c-0.8,0.364-1.519,0.161-2.135-0.428
	c-0.434-0.415-0.674-0.963-0.962-1.479c-2.141-3.837-4.285-7.672-6.443-11.499c-0.133-0.236-0.156-0.653-0.518-0.641
	c-0.334,0.011-0.404,0.39-0.543,0.638c-2.16,3.867-4.316,7.737-6.474,11.606c-0.18,0.322-0.344,0.657-0.554,0.959
	C7.67,24.606,6.51,24.882,5.583,24.27c-0.995-0.657-1.238-1.701-0.625-2.802c1.904-3.419,3.814-6.835,5.727-10.249
	c1.083-1.933,2.192-3.85,3.254-5.794c0.436-0.798,0.971-1.393,1.942-1.419c1.027-0.028,1.607,0.594,2.067,1.414
	c2.924,5.217,5.857,10.429,8.782,15.645C26.999,21.546,27.284,22.029,27.254,22.785z"/>
<path fill="#FFDC24" d="M13.95,21.458c0-0.441-0.039-0.886,0.008-1.321c0.116-1.061,0.872-1.78,1.875-1.832
	c0.954-0.05,1.919,0.652,2.03,1.656c0.109,0.978,0.11,1.986,0.006,2.965c-0.105,0.988-1.095,1.726-2.021,1.682
	c-0.976-0.047-1.783-0.806-1.891-1.828C13.911,22.343,13.949,21.898,13.95,21.458z"/>
</svg>
