<?xml version="1.0" encoding="utf-8"?>
<!-- Generator: Adobe Illustrator 17.0.0, SVG Export Plug-In . SVG Version: 6.00 Build 0)  -->
<!DOCTYPE svg PUBLIC "-//W3C//DTD SVG 1.1//EN" "http://www.w3.org/Graphics/SVG/1.1/DTD/svg11.dtd">
<svg version="1.1" id="레이어_1" xmlns="http://www.w3.org/2000/svg" xmlns:xlink="http://www.w3.org/1999/xlink" x="0px"
	 y="0px" width="486.713px" height="94.956px" viewBox="0 0 486.713 94.956" enable-background="new 0 0 486.713 94.956"
	 xml:space="preserve">
<g>
	<path fill="#61D377" d="M214.704,42.805c-1.838,1.749-1.133,3.505-1.141,5.044c-0.064,11.665-0.007,23.331-0.044,34.996
		c-0.022,6.917-3.756,11.523-9.126,11.408c-5.407-0.115-8.968-4.643-8.976-11.599c-0.026-23.831,0.023-47.662-0.041-71.493
		c-0.012-4.513,0.808-8.351,5.705-9.907c4.087-1.298,8.669,0.589,11.323,5.238c7.021,12.294,13.81,24.72,20.702,37.088
		c3.794,6.808,7.61,13.603,11.836,21.155c3.366-5.892,6.429-11.148,9.391-16.461c7.703-13.816,15.326-27.678,23.059-41.477
		c2.431-4.339,7.302-6.705,11.226-5.757c4.285,1.035,6.349,4.386,6.352,10.501c0.011,23.998-0.037,47.995,0.024,71.993
		c0.013,5.125-2.192,8.758-6.901,10.429c-3.886,1.379-7.193-0.316-9.724-3.395c-1.8-2.189-1.978-4.87-1.977-7.575
		c0.008-11.499,0.027-22.998-0.029-34.497c-0.008-1.571,0.555-3.258-0.699-5.096c-2.823,3.302-4.34,7.148-6.257,10.717
		c-5.36,9.977-10.627,20.005-15.856,30.051c-1.81,3.478-4.162,6.075-8.388,6.07c-4.166-0.005-6.686-2.412-8.521-5.909
		c-7.042-13.419-14.139-26.81-21.216-40.21C215.204,43.7,214.971,43.291,214.704,42.805z"/>
	<path fill="#61D377" d="M185.142,86.002c-0.221,3.079-2.144,5.838-5.602,7.411c-3.606,1.64-6.848,0.727-9.625-1.931
		c-1.955-1.872-3.04-4.341-4.339-6.667c-9.652-17.295-19.317-34.582-29.044-51.835c-0.6-1.065-0.702-2.945-2.337-2.889
		c-1.504,0.051-1.823,1.757-2.449,2.877c-9.739,17.433-19.456,34.879-29.182,52.319c-0.811,1.454-1.55,2.962-2.498,4.322
		c-3.209,4.605-8.437,5.849-12.618,3.088c-4.485-2.961-5.581-7.668-2.817-12.633c8.582-15.413,17.193-30.81,25.815-46.2
		c4.88-8.712,9.88-17.357,14.669-26.118c1.967-3.599,4.377-6.279,8.754-6.398c4.631-0.126,7.243,2.679,9.316,6.376
		c13.181,23.515,26.401,47.01,39.586,70.523C183.989,80.416,185.275,82.595,185.142,86.002z"/>
	<path fill="#61D377" d="M46.454,94.693C20.247,94.412-0.652,72.476,0.016,45.95C0.67,19.943,22.952-0.936,48.936,0.339
		c8.295,0.407,16.099,2.771,22.637,8.175c3.083,2.548,5.189,5.765,3.933,10.064c-1.688,5.78-8.45,8.201-13.833,3.816
		C47.644,10.963,22.76,19.288,18.406,41.69c-2.339,12.033,1.667,22.439,11.449,30.027c9.555,7.412,20.003,7.589,30.753,1.179
		c0.714-0.426,1.448-0.829,2.204-1.174c4.801-2.189,9.182-1.301,11.597,2.329c2.521,3.789,1.734,8.689-2.473,12.001
		C64.507,91.9,56.022,94.982,46.454,94.693z"/>
	<path fill="#61D377" d="M311.874,48.149c-0.004-11.652-0.055-23.305,0.012-34.957c0.052-8.961,3.094-11.938,12.062-11.956
		c13.151-0.027,26.301-0.03,39.452,0.005c6.441,0.017,10.129,2.951,9.98,7.793c-0.151,4.898-3.858,7.85-10.128,7.888
		c-9.655,0.057-19.311,0.105-28.964-0.019c-3.154-0.04-4.533,0.976-4.427,4.283c0.175,5.488,0.2,10.991-0.011,16.476
		c-0.132,3.437,1.411,4.195,4.478,4.134c7.488-0.149,14.981-0.071,22.472-0.035c6.47,0.031,10.112,2.867,10.1,7.772
		c-0.011,4.738-3.818,7.621-10.289,7.667c-7.158,0.051-14.324,0.225-21.47-0.064c-4.266-0.173-5.462,1.475-5.314,5.51
		c0.256,6.982,0.123,13.981,0.045,20.972c-0.075,6.694-3.687,11.006-9.014,10.964c-5.451-0.043-8.905-4.133-8.955-10.976
		C311.816,71.787,311.878,59.968,311.874,48.149z"/>
	<path fill="#61D377" d="M442.271,53.442c0-10.664-0.093-21.33,0.057-31.993c0.045-3.191-0.891-4.524-4.239-4.369
		c-4.655,0.217-9.332,0.148-13.994,0.01c-5.422-0.159-8.792-3.421-8.754-8.206c0.036-4.583,3.24-7.593,8.664-7.619
		c17.996-0.088,35.993-0.093,53.988-0.001c5.583,0.028,8.624,2.851,8.718,7.515c0.098,4.886-3.117,8.097-8.609,8.301
		c-4.327,0.16-8.684,0.31-12.99-0.024c-4.139-0.321-5.017,1.419-4.988,5.19c0.148,19.495,0.068,38.991,0.066,58.487
		c0,1.5,0.06,3.004-0.038,4.498c-0.337,5.174-4.126,9.052-8.809,9.087c-4.836,0.036-8.937-4.028-9.005-9.386
		c-0.132-10.496-0.039-20.995-0.039-31.493C442.29,53.442,442.28,53.442,442.271,53.442z"/>
	<path fill="#61D377" d="M405.552,47.425c0.001,12.15,0.04,24.301-0.014,36.451c-0.031,6.869-3.744,11.158-9.397,11.079
		c-5.429-0.075-8.929-4.314-8.934-10.985c-0.02-24.301-0.016-48.602,0.007-72.903c0.006-6.765,3.372-10.921,8.836-11.064
		c5.649-0.147,9.457,4.169,9.487,10.97C405.59,23.123,405.551,35.274,405.552,47.425z"/>
	<path fill="#FFDC24" d="M125.233,80.02c0.001-1.987-0.177-3.993,0.037-5.956c0.521-4.785,3.93-8.023,8.45-8.26
		c4.302-0.225,8.649,2.94,9.152,7.465c0.49,4.409,0.496,8.953,0.029,13.365c-0.471,4.454-4.937,7.781-9.109,7.58
		c-4.399-0.212-8.038-3.633-8.525-8.239C125.058,84.011,125.231,82.006,125.233,80.02z"/>
</g>
</svg>
