<?xml version="1.0" encoding="utf-8"?>
<!-- Generator: Adobe Illustrator 27.2.0, SVG Export Plug-In . SVG Version: 6.00 Build 0)  -->
<svg version="1.1" id="Layer_1" xmlns="http://www.w3.org/2000/svg" xmlns:xlink="http://www.w3.org/1999/xlink" x="0px" y="0px"
	 viewBox="0 0 27.96 40.42" style="enable-background:new 0 0 27.96 40.42;" xml:space="preserve">
<style type="text/css">
	.st0{fill:#61D377;stroke:#268732;stroke-miterlimit:10;}
	.st1{fill:#FAFDFA;}
	.st2{fill:#B0E2B7;}
	.st3{fill:#FFDC24;}
</style>
<g>
	<g>
		<path class="st0" d="M27.46,13.98c0,7.44-13.48,25.6-13.48,25.6S0.5,21.42,0.5,13.98S6.53,0.5,13.98,0.5S27.46,6.53,27.46,13.98z"
			/>
		<circle class="st1" cx="13.98" cy="13.65" r="7.69"/>
		<g>
			<path class="st2" d="M18.5,16.78c-0.02,0.27-0.19,0.52-0.5,0.66c-0.32,0.15-0.61,0.06-0.85-0.17c-0.17-0.17-0.27-0.38-0.38-0.59
				c-0.85-1.53-1.71-3.06-2.57-4.59c-0.05-0.09-0.06-0.26-0.21-0.26c-0.13,0-0.16,0.16-0.22,0.25c-0.86,1.54-1.72,3.09-2.58,4.63
				c-0.07,0.13-0.14,0.26-0.22,0.38c-0.28,0.41-0.75,0.52-1.12,0.27c-0.4-0.26-0.49-0.68-0.25-1.12c0.76-1.37,1.52-2.73,2.29-4.09
				c0.43-0.77,0.88-1.54,1.3-2.31c0.17-0.32,0.39-0.56,0.78-0.57c0.41-0.01,0.64,0.24,0.83,0.56c1.17,2.08,2.34,4.16,3.51,6.25
				C18.39,16.29,18.51,16.48,18.5,16.78z"/>
			<path class="st3" d="M13.19,16.25c0-0.18-0.02-0.35,0-0.53c0.05-0.42,0.35-0.71,0.75-0.73c0.38-0.02,0.77,0.26,0.81,0.66
				c0.04,0.39,0.04,0.79,0,1.18c-0.04,0.39-0.44,0.69-0.81,0.67c-0.39-0.02-0.71-0.32-0.75-0.73C13.17,16.6,13.19,16.43,13.19,16.25
				z"/>
		</g>
	</g>
</g>
</svg>
