<?xml version="1.0" encoding="utf-8"?>
<!-- Generator: Adobe Illustrator 27.2.0, SVG Export Plug-In . SVG Version: 6.00 Build 0)  -->
<svg version="1.1" id="Layer_1" xmlns="http://www.w3.org/2000/svg" xmlns:xlink="http://www.w3.org/1999/xlink" x="0px" y="0px"
	 viewBox="0 0 368.5 368.5" style="enable-background:new 0 0 368.5 368.5;" xml:space="preserve">
<style type="text/css">
	.st0{fill:none;stroke:#E2E2E2;stroke-width:7;stroke-linecap:round;stroke-miterlimit:10;}
	.st1{fill:none;stroke:#E2E2E2;stroke-width:7;stroke-miterlimit:10;}
	.st2{fill:none;stroke:#E2E2E2;stroke-width:15;stroke-miterlimit:10;}
	.st3{fill:#E2E2E2;}
</style>
<g>
	<circle class="st0" cx="196.12" cy="141.33" r="62.43"/>
	<circle class="st0" cx="196.12" cy="141.33" r="82.34"/>
	<line class="st0" x1="165.29" y1="118.99" x2="184.15" y2="137.85"/>
	<line class="st0" x1="184.15" y1="118.99" x2="165.29" y2="137.85"/>
	<line class="st0" x1="205.79" y1="118.99" x2="224.65" y2="137.85"/>
	<line class="st0" x1="224.65" y1="118.99" x2="205.79" y2="137.85"/>
	<path class="st0" d="M173.9,169.92c0,0,19.72-21.83,42.32,0"/>
	<path class="st1" d="M117.26,234.3L44.7,306.86c-3.54,3.54-9.33,3.54-12.86,0l-3.99-3.99c-3.72-3.72-3.72-9.82,0-13.54l72.22-72.22
		c4.67-4.67,12.3-4.67,16.97,0l0.23,0.23C121.92,222,121.92,229.64,117.26,234.3z"/>
	<line class="st1" x1="91.21" y1="225.95" x2="108.41" y2="243.15"/>
	<line class="st2" x1="117.03" y1="217.11" x2="137.75" y2="196.39"/>
	<g>
		<path class="st3" d="M132.22,266.5h-4.32c0.05,2.1,1.6,4.26,5,5.12l-1.32,2.3c-2.47-0.62-4.18-1.96-5.15-3.67
			c-0.95,1.88-2.67,3.37-5.17,4.07l-1.41-2.37c3.41-0.88,5.01-3.14,5.05-5.45h-4.3v-2.37h4.3v-2.16h3.03v2.16h4.28V266.5z
			 M137.25,277.52h-5.43c0.54,1.57,2.64,3.1,6.37,3.6l-1.06,2.28c-3.44-0.46-5.86-1.83-7.1-3.67c-1.22,1.82-3.63,3.16-7.03,3.62
			l-1.08-2.28c3.76-0.46,5.84-1.94,6.39-3.55h-5.48v-2.35h14.41V277.52z M136.99,266.85h2.89v2.47h-2.89v4.93h-3.01v-12.2h3.01
			V266.85z"/>
		<path class="st3" d="M160.39,280.84h-19.57v-2.42h19.57V280.84z M158.63,269.3c-0.02,3.74-3.55,6.18-8.06,6.16
			c-4.54,0.02-8.04-2.42-8.04-6.16c0-3.71,3.5-6.13,8.04-6.16C155.08,263.16,158.61,265.58,158.63,269.3z M145.45,269.3
			c0,2.33,2.16,3.71,5.12,3.71c2.96,0,5.08-1.39,5.1-3.71c-0.02-2.3-2.14-3.74-5.1-3.71C147.61,265.56,145.45,267,145.45,269.3z"/>
		<path class="st3" d="M175.34,276.3l-1.76,2.4c-2.44-1.1-4.13-3.23-5.1-5.87c-0.98,2.88-2.73,5.2-5.33,6.39l-1.81-2.49
			c3.74-1.57,5.55-5.66,5.57-9.82v-3.2h3.03v3.2C169.94,270.83,171.72,274.77,175.34,276.3z M179.52,283.49h-3.03v-21.43h3.03
			V283.49z"/>
		<path class="st3" d="M201.97,274.89h-19.57v-2.35h19.57V274.89z M199.92,282.97h-15.27v-6.34h3.01v3.95h12.27V282.97z
			 M199.78,270.24h-14.95v-7.43h2.98v5.08h11.96V270.24z"/>
		<path class="st3" d="M226.78,272.82h-2.98v-1.65h-4.89v-2.28h4.89v-1.88h-4.65c-1.33,3.22-4.38,5.28-9.12,6.3l-1.01-2.44
			c4.9-0.97,7.17-3,7.57-5.57h-6.37v-2.42h9.68c0,0.65-0.05,1.27-0.14,1.86h4.04v-2.68h2.98V272.82z M226.78,279.45H215.6v1.41
			h11.66v2.37h-14.66v-5.99h11.19v-1.29h-11.21v-2.35h14.22V279.45z"/>
		<path class="st3" d="M236.25,276.54c2.1-0.08,4.24-0.23,6.2-0.49l0.19,2.23c-4.39,0.75-9.26,0.82-12.99,0.8l-0.28-2.4
			c1.2-0.01,2.54-0.01,3.92-0.05v-6.3h2.96V276.54z M241.59,265.91c-0.02,2.02-0.02,4.65-0.59,8.2l-2.96-0.24
			c0.48-3.1,0.53-5.39,0.56-7.28h-8.11v-2.4h11.09V265.91z M246.5,270.66h2.91v2.49h-2.91v10.29h-3.03v-21.38h3.03V270.66z"/>
		<path class="st3" d="M251.81,279.71l-1.69-2.3c5.06-2.54,7.78-5.95,8.34-10.72h-7.12v-2.44h10.17
			C261.49,270.64,259,276.18,251.81,279.71z M267.22,270.26h3.03v2.47h-3.03v10.67h-3.01v-21.34h3.01V270.26z"/>
		<path class="st3" d="M288.16,266.64h3.57v-4.58h2.98v11.33h-2.98v-4.28h-3.57c-0.58,2.31-2.76,3.85-5.5,3.85
			c-3.29,0-5.71-2.09-5.69-5.08c-0.02-2.94,2.4-5.03,5.69-5.03C285.39,262.86,287.56,264.37,288.16,266.64z M281.84,276.7h2.3v-2.14
			h2.77v6.49c2.37-1.06,3.38-3.05,3.38-5v-1.64h3.01v1.64c-0.02,2.19,1.03,4.25,3.71,5.12l-1.55,2.23
			c-1.84-0.63-3.03-1.86-3.71-3.38c-0.72,1.48-1.89,2.71-3.62,3.38l-1.22-1.86v1.67h-7.85v-8.65h2.77V276.7z M279.82,267.89
			c-0.02,1.62,1.17,2.61,2.84,2.63c1.62-0.02,2.8-1.01,2.8-2.63c0-1.57-1.17-2.56-2.8-2.56C281,265.33,279.8,266.31,279.82,267.89z
			 M284.15,280.93v-2.02h-2.3v2.02H284.15z"/>
		<path class="st3" d="M301.32,275.76c1.96-0.04,3.77-0.18,5.78-0.61l0.4,2.51c-2.63,0.56-4.93,0.66-7.68,0.66h-1.5V264.1h3.01
			V275.76z M311.45,282.5h-2.84v-11.26h-4.28v-2.42h4.28v-6.37h2.84V282.5z M316.03,283.44h-2.82v-21.38h2.82V283.44z"/>
		<path class="st3" d="M337.86,280.95h-19.57v-2.47h4.37v-5.24c-1.66-0.99-2.66-2.5-2.66-4.39c0-3.45,3.38-5.76,8.04-5.76
			c4.63,0,8.04,2.3,8.06,5.76c-0.01,1.84-0.99,3.35-2.58,4.35v5.29h4.35V280.95z M322.97,268.85c0,2.09,2.02,3.38,5.08,3.38
			c3.03,0,5.08-1.29,5.1-3.38c-0.02-2.16-2.07-3.38-5.1-3.38C324.99,265.47,322.97,266.69,322.97,268.85z M330.49,278.49v-4.16
			c-0.76,0.15-1.59,0.23-2.44,0.23c-0.86,0-1.67-0.07-2.42-0.23v4.16H330.49z"/>
	</g>
	<g>
		<path class="st3" d="M131.16,303.3h-1.55l-7.05-10.14h-0.13v10.14h-1.62v-13.01h1.56l7.05,10.16h0.13v-10.16h1.6V303.3z"/>
		<path class="st3" d="M133.37,298.47c0-3.04,1.8-5.05,4.46-5.05c2.64,0,4.42,2.01,4.42,5.05c0,3.04-1.78,5.03-4.42,5.03
			C135.16,303.5,133.37,301.5,133.37,298.47z M140.7,298.47c0-1.94-0.92-3.69-2.88-3.69c-2,0-2.91,1.74-2.91,3.69
			s0.92,3.67,2.91,3.67C139.78,302.13,140.7,300.41,140.7,298.47z"/>
		<path class="st3" d="M149.09,290.29h4.42c3.06,0,4.44,1.69,4.44,4.01c0,1.72-0.77,3.07-2.43,3.65l2.93,5.36h-1.89l-2.71-5.07
			l-0.32,0.02h-2.82v5.05h-1.62V290.29z M153.46,296.78c2.07,0,2.89-0.94,2.89-2.48c0-1.56-0.83-2.57-2.91-2.57h-2.73v5.05H153.46z"
			/>
		<path class="st3" d="M159.52,298.5c0-3,1.76-5.09,4.42-5.09c2.05,0,4.21,1.26,4.21,4.87v0.65h-7.08c0.07,2.07,1.28,3.2,3.02,3.2
			c1.17,0,1.91-0.5,2.26-1.12H168c-0.47,1.47-1.91,2.48-3.92,2.48C161.26,303.5,159.52,301.5,159.52,298.5z M166.58,297.62
			c0-1.64-1.04-2.84-2.64-2.84c-1.69,0-2.77,1.33-2.86,2.84H166.58z"/>
		<path class="st3" d="M173.61,294.73c-1.2,0-2.07,0.65-2.07,1.47c0,0.65,0.52,1.1,1.67,1.37l1.46,0.36
			c1.74,0.41,2.61,1.28,2.61,2.64c0,1.69-1.38,2.93-3.83,2.93c-2.19,0-3.5-0.97-3.76-2.75h1.62c0.18,0.95,0.88,1.4,2.1,1.4
			c1.38,0,2.26-0.58,2.26-1.49c0-0.68-0.49-1.15-1.6-1.4l-1.47-0.34c-1.71-0.4-2.61-1.33-2.61-2.62c0-1.67,1.46-2.88,3.61-2.88
			c2.01,0,3.29,1.08,3.49,2.66h-1.51C175.37,295.27,174.76,294.73,173.61,294.73z"/>
		<path class="st3" d="M185.45,293.54h1.53v9.76h-1.53v-1.65h-0.11c-0.47,0.99-1.42,1.78-2.89,1.78c-1.85,0-3.16-1.2-3.16-3.68v-6.2
			h1.55v6.09c0,1.4,0.88,2.3,2.12,2.3c1.1,0,2.5-0.83,2.5-2.64V293.54z"/>
		<path class="st3" d="M191,303.3h-1.55v-13.01H191V303.3z"/>
		<path class="st3" d="M197.72,294.83h-2.05v5.66c0,1.26,0.61,1.46,1.28,1.46c0.29,0,0.68-0.02,0.92-0.04v1.44
			c-0.23,0.04-0.63,0.07-1.08,0.07c-1.29,0-2.68-0.81-2.68-2.53v-6.06h-1.47v-1.29h1.47v-2.34h1.56v2.34h2.05V294.83z"/>
		<path class="st3" d="M202.98,294.73c-1.2,0-2.07,0.65-2.07,1.47c0,0.65,0.52,1.1,1.67,1.37l1.46,0.36
			c1.74,0.41,2.61,1.28,2.61,2.64c0,1.69-1.38,2.93-3.83,2.93c-2.19,0-3.5-0.97-3.76-2.75h1.62c0.18,0.95,0.88,1.4,2.1,1.4
			c1.38,0,2.26-0.58,2.26-1.49c0-0.68-0.49-1.15-1.6-1.4l-1.47-0.34c-1.71-0.4-2.61-1.33-2.61-2.62c0-1.67,1.46-2.88,3.61-2.88
			c2.01,0,3.29,1.08,3.49,2.66h-1.51C204.74,295.27,204.13,294.73,202.98,294.73z"/>
		<path class="st3" d="M213.47,290.29h7.84v1.44h-6.22v4.35h5.63v1.42h-5.63v5.81h-1.62V290.29z"/>
		<path class="st3" d="M222.34,298.47c0-3.04,1.8-5.05,4.46-5.05c2.64,0,4.42,2.01,4.42,5.05c0,3.04-1.78,5.03-4.42,5.03
			C224.14,303.5,222.34,301.5,222.34,298.47z M229.67,298.47c0-1.94-0.92-3.69-2.88-3.69c-2,0-2.91,1.74-2.91,3.69
			s0.92,3.67,2.91,3.67C228.76,302.13,229.67,300.41,229.67,298.47z"/>
		<path class="st3" d="M239.41,293.54h1.53v9.76h-1.53v-1.65h-0.11c-0.47,0.99-1.42,1.78-2.89,1.78c-1.85,0-3.16-1.2-3.16-3.68v-6.2
			h1.55v6.09c0,1.4,0.88,2.3,2.12,2.3c1.1,0,2.5-0.83,2.5-2.64V293.54z"/>
		<path class="st3" d="M244.96,303.3h-1.55v-9.76h1.49v1.53h0.13c0.47-0.99,1.37-1.65,2.86-1.65c1.98,0,3.29,1.2,3.29,3.68v6.2
			h-1.55v-6.09c0-1.51-0.83-2.41-2.21-2.41c-1.42,0-2.46,0.95-2.46,2.64V303.3z"/>
		<path class="st3" d="M253.19,298.45c0-3.09,1.73-5.03,4.17-5.03c1.89,0,2.5,1.15,2.82,1.67h0.11v-4.8h1.56v13.01h-1.51v-1.49
			h-0.16c-0.34,0.54-0.97,1.69-2.84,1.69C254.91,303.5,253.19,301.54,253.19,298.45z M260.34,298.41c0-2.16-0.97-3.61-2.79-3.61
			c-1.87,0-2.8,1.58-2.8,3.61c0,2.09,0.95,3.7,2.8,3.7C259.34,302.11,260.34,300.6,260.34,298.41z"/>
	</g>
</g>
</svg>
