<?xml version="1.0" encoding="utf-8"?>
<!-- Generator: Adobe Illustrator 17.0.0, SVG Export Plug-In . SVG Version: 6.00 Build 0)  -->
<!DOCTYPE svg PUBLIC "-//W3C//DTD SVG 1.1//EN" "http://www.w3.org/Graphics/SVG/1.1/DTD/svg11.dtd">
<svg version="1.1" id="레이어_1" xmlns="http://www.w3.org/2000/svg" xmlns:xlink="http://www.w3.org/1999/xlink" x="0px"
	 y="0px" width="76.94px" height="73.479px" viewBox="100.039 33.204 76.94 73.479"
	 enable-background="new 100.039 33.204 76.94 73.479" xml:space="preserve">
<g>
	<polygon fill="#D94444" points="135.213,39.954 138.546,33.204 138.566,33.204 141.898,39.954 149.365,41.043 143.965,46.313 
		145.241,53.733 138.566,50.232 138.566,50.241 138.536,50.232 131.871,53.733 133.147,46.313 127.746,41.043 	"/>
	<path fill="#D94444" d="M100.039,48.335c0-2.389,1.93-4.329,4.31-4.329c2.398,0,4.329,1.94,4.329,4.329
		c0,2.389-1.931,4.329-4.329,4.329C101.969,52.664,100.039,50.724,100.039,48.335"/>
	<path fill="#D94444" d="M168.339,48.335c0-2.389,1.931-4.329,4.311-4.329c2.398,0,4.329,1.94,4.329,4.329
		c0,2.389-1.931,4.329-4.329,4.329C170.27,52.664,168.339,50.724,168.339,48.335"/>
	<path fill="#D94444" d="M104.012,106.683l-1.815-49.33l15.667,9.959l1.26,37.848C113.78,105.29,108.705,106.432,104.012,106.683"/>
	<path fill="#D94444" d="M173.103,106.683c-4.693-0.252-9.768-1.393-15.111-1.523l1.259-37.848l15.668-9.959L173.103,106.683"/>
	<path fill="#D94444" d="M152.993,104.866c-4.971-0.111-9.221-0.467-14.537-0.467c-5.345,0-9.648,0.356-14.61,0.467l-0.87-37.445
		l15.48-8.461l15.574,8.461L152.993,104.866z"/>
</g>
</svg>
