<?xml version="1.0" encoding="utf-8"?>
<!-- Generator: Adobe Illustrator 17.0.0, SVG Export Plug-In . SVG Version: 6.00 Build 0)  -->
<!DOCTYPE svg PUBLIC "-//W3C//DTD SVG 1.1//EN" "http://www.w3.org/Graphics/SVG/1.1/DTD/svg11.dtd">
<svg version="1.1" id="레이어_1" xmlns="http://www.w3.org/2000/svg" xmlns:xlink="http://www.w3.org/1999/xlink" x="0px"
	 y="0px" width="230.224px" height="108px" viewBox="0 0 230.224 108" enable-background="new 0 0 230.224 108"
	 xml:space="preserve">
<g>
	<path fill="#F2F2F2" d="M116.948,1.58c0,2.728-3.076,6.29-9.227,10.688c-6.152,4.4-14.896,9.759-26.235,16.079
		c-6.893,7.746-12.729,15.15-17.51,22.213s-7.17,11.959-7.17,14.685c0,2.727,0.926,4.089,2.779,4.089
		c1.334,0,3.168-0.588,5.503-1.766c2.334-1.176,4.316-2.354,5.947-3.532l2.445-1.766c0.445-0.433,0.852-0.651,1.224-0.651
		c0.369,0,0.556,0.125,0.556,0.372c0,1.612-2.373,3.594-7.115,5.948c-4.743,2.354-8.301,3.532-10.672,3.532
		c-4.521,0-6.781-1.473-6.781-4.415c0-2.942,1.778-7.357,5.336-13.244c3.558-5.886,8.152-12.206,13.785-18.96
		c-12.229,6.631-21.383,11.65-27.459,15.057c-7.856,8.985-15.675,16.776-23.456,23.375c-7.782,6.599-13.229,9.898-16.342,9.898
		C0.853,83.184,0,82.657,0,81.604c0-3.471,3.168-7.714,9.505-12.733c6.336-5.019,15.136-10.812,26.402-17.38
		c6.965-8.302,12.802-16.187,17.509-23.654c4.705-7.466,7.06-12.903,7.06-16.312c0-3.903-2.335-6.288-7.004-7.156
		c-3.632-0.744-7.431-1.116-11.395-1.116c-3.966,0-7.115,0.093-9.449,0.279c-2.335,0.186-4.911,0.543-7.727,1.069
		c-2.817,0.527-5.097,1.379-6.837,2.556c-1.742,1.178-2.612,2.603-2.612,4.275c0,1.921,2.019,3.439,6.059,4.554
		c4.039,1.115,8.56,2.23,13.563,3.346c5.003,1.116,8.207,2.479,9.616,4.09c0.592,0.558,1,1.58,1.223,3.067
		c0,0.434-0.167,0.651-0.5,0.651c-0.334,0-0.649-0.217-0.945-0.651c-0.667-1.301-2.798-2.463-6.392-3.485
		c-3.596-1.022-7.338-1.827-11.229-2.417c-3.891-0.588-7.411-1.548-10.561-2.881c-3.151-1.332-4.725-2.988-4.725-4.972
		c0-1.982,0.778-3.702,2.334-5.158c1.557-1.455,3.391-2.556,5.503-3.3c2.112-0.743,4.798-1.332,8.06-1.766
		c4.892-0.558,10.617-0.836,17.176-0.836s11.673,0.899,15.341,2.695c3.669,1.798,5.503,4.307,5.503,7.528
		c0,6.877-6.597,18.217-19.788,34.017c3.558-1.982,8.597-4.755,15.119-8.318c6.521-3.563,10.709-5.87,12.563-6.924
		c7.632-8.674,15.285-15.954,22.956-21.842c7.67-5.886,13.877-8.83,18.62-8.83C116.281,0,116.948,0.527,116.948,1.58z M3.891,81.046
		c2.074,0,5.798-2.433,11.173-7.296c5.372-4.863,11.208-10.951,17.509-18.263C12.932,67.012,3.112,75.252,3.112,80.21
		C3.112,80.768,3.373,81.046,3.891,81.046z M112.279,2.138c-2.075,0-5.559,2.03-10.449,6.088c-4.892,4.059-10.303,9.28-16.23,15.661
		c18.231-10.409,27.347-17.473,27.347-21.191C112.946,2.324,112.724,2.138,112.279,2.138z"/>
	<path fill="#F2F2F2" d="M97.827,61.621c4.149,0,9.115-1.952,14.896-5.855l1.89,0.465c-7.264,5.082-13.526,7.622-18.787,7.622
		c-0.595,0-1.039-0.031-1.334-0.093c-2.001,2.045-4.188,3.703-6.56,4.973c-2.372,1.269-4.446,1.905-6.225,1.905
		c-2.817,0-4.225-1.316-4.225-3.95c0-2.633,2.63-6.149,7.893-10.549c-0.89-1.796-1.334-3.686-1.334-5.669
		c0-1.982,0.852-3.593,2.557-4.833c1.704-1.239,3.687-1.859,5.948-1.859c2.26,0,4.168,0.62,5.725,1.859
		c1.557,1.24,2.335,3.006,2.335,5.297c0,3.532-1.373,7.064-4.113,10.596C96.788,61.591,97.232,61.621,97.827,61.621z M82.041,66.175
		c0,1.24,0.962,1.859,2.891,1.859c1.926,0,4.372-1.641,7.337-4.926c-2.001-0.867-3.779-2.385-5.336-4.554
		C83.67,61.528,82.041,64.07,82.041,66.175z M94.27,60.692c2.296-3.221,3.446-5.963,3.446-8.226c0-2.261-0.667-3.934-2.001-5.019
		c-1.334-1.083-2.632-1.626-3.891-1.626c-2.596,0-3.892,1.115-3.892,3.346c0,2.23,0.593,4.447,1.779,6.646
		C90.896,58.012,92.416,59.639,94.27,60.692z"/>
	<path fill="#F2F2F2" d="M141.736,54.186c0.518-0.309,1.001-0.464,1.445-0.464c0.445,0,0.667,0.218,0.667,0.65v0.186
		c-7.709,5.33-13.563,9.047-17.564,11.153c-5.188,3.285-9.561,4.926-13.117,4.926c-3.113,0-4.67-1.548-4.67-4.647
		c0-4.15,3.205-10.3,9.616-18.449c6.41-8.147,13.618-15.475,21.622-21.981c8.004-6.506,14.044-9.759,18.121-9.759
		c1.852,0,2.778,0.683,2.778,2.045c0,3.408-4.874,9.031-14.618,16.869c-9.746,7.839-19.326,14.515-28.737,20.029
		c-2.742,4.4-4.112,7.746-4.112,10.038c0,2.293,0.962,3.439,2.89,3.439c1.927,0,4.447-0.93,7.56-2.789
		c5.262-2.602,10.375-5.7,15.341-9.294L141.736,54.186z M155.077,18.774c-3.113,0-8.635,3.75-16.564,11.246
		c-7.931,7.498-14.49,14.996-19.677,22.492c8.521-5.08,16.859-11.292,25.013-18.635c8.152-7.343,12.229-12.097,12.229-14.267
		C156.077,19.053,155.744,18.774,155.077,18.774z"/>
	<path fill="#F2F2F2" d="M168.638,54.186c0.518-0.309,1.001-0.464,1.445-0.464c0.445,0,0.667,0.218,0.667,0.65v0.186
		c-7.709,5.33-13.563,9.047-17.564,11.153c-5.188,3.285-9.561,4.926-13.117,4.926c-3.113,0-4.67-1.548-4.67-4.647
		c0-4.15,3.205-10.3,9.616-18.449c6.41-8.147,13.618-15.475,21.622-21.981c8.004-6.506,14.044-9.759,18.121-9.759
		c1.852,0,2.778,0.683,2.778,2.045c0,3.408-4.874,9.031-14.618,16.869c-9.746,7.839-19.326,14.515-28.737,20.029
		c-2.742,4.4-4.112,7.746-4.112,10.038c0,2.293,0.962,3.439,2.89,3.439c1.927,0,4.447-0.93,7.56-2.789
		c5.262-2.602,10.375-5.7,15.341-9.294L168.638,54.186z M181.979,18.774c-3.113,0-8.635,3.75-16.564,11.246
		c-7.931,7.498-14.49,14.996-19.677,22.492c8.521-5.08,16.859-11.292,25.013-18.635c8.152-7.343,12.229-12.097,12.229-14.267
		C182.979,19.053,182.646,18.774,181.979,18.774z"/>
	<path fill="#F2F2F2" d="M155.297,78.63c0.222-0.497,0.389-0.776,0.5-0.836c0.111-0.063,0.389-0.109,0.834-0.14
		c0.444-0.032,1.852-0.311,4.225-0.836c2.37-0.527,5.187-1.38,8.448-2.556c9.485-10.099,14.508-15.598,15.063-16.497
		c0.556-0.897,0.834-1.441,0.834-1.626c0-0.186-0.149-0.279-0.445-0.279c-0.297,0-0.63,0.218-1,0.65
		c-0.149,0.063-1.131,0.79-2.946,2.184c-1.816,1.394-3.596,2.681-5.336,3.857c-1.742,1.178-3.763,2.309-6.059,3.392
		c-2.298,1.085-4.263,1.626-5.892,1.626c-1.632,0-2.446-0.495-2.446-1.487c0.073-2.292,1.945-5.452,5.614-9.48
		c3.668-4.027,6.132-6.041,7.393-6.041c1.26,0,1.89,0.279,1.89,0.836c0,0.311-1.687,2.23-5.058,5.763
		c-3.374,3.532-5.059,5.732-5.059,6.599c0,0.869,0.334,1.301,1.001,1.301c1.334,0,5.169-2.261,11.506-6.785
		c6.336-4.522,10.244-6.785,11.728-6.785c0.445,0,0.871,0.186,1.278,0.558c0.407,0.372,0.612,0.776,0.612,1.208
		c0,1.364-5.337,7.467-16.009,18.31c10.005-4.647,19.306-9.913,27.903-15.8l2.445-1.673c0.593-0.309,1.074-0.465,1.445-0.465
		c0.37,0,0.556,0.156,0.556,0.465l-0.11,0.372c0.37,0-1.595,1.364-5.893,4.09c-4.299,2.727-8.265,5.144-11.895,7.25
		c-3.632,2.107-9.227,4.771-16.786,7.993l-7.894,8.086c1.037,1.239,1.557,2.695,1.557,4.368c0,2.849-1.445,6.025-4.336,9.527
		c-2.89,3.5-6.133,6.413-9.727,8.736S146.7,108,144.402,108c-0.667,0-1.278-0.202-1.834-0.604c-0.557-0.404-0.834-0.961-0.834-1.673
		c0-0.713,0.427-1.782,1.278-3.207c0.853-1.426,2.112-3.083,3.779-4.973c1.668-1.891,3.243-3.594,4.725-5.112
		c1.483-1.519,3.374-3.424,5.67-5.716c2.296-2.293,4.002-3.997,5.113-5.112c-1.334-0.992-2.834-1.612-4.502-1.859
		C156.13,79.497,155.297,79.125,155.297,78.63z M164.19,85.786c0-0.62-0.111-1.271-0.334-1.952
		c-10.895,11.4-16.342,18.217-16.342,20.447c0,0.186,0.111,0.279,0.334,0.279c1.261,0,3.188-1.022,5.78-3.067
		c2.596-2.045,5.003-4.586,7.227-7.622C163.078,90.835,164.19,88.14,164.19,85.786z M163.634,80.21l1.445-1.58
		c1.185-1.178,1.927-1.952,2.224-2.324c-2.15,0.805-3.854,1.348-5.113,1.626c-1.262,0.279-1.891,0.479-1.891,0.604L163.634,80.21z"
		/>
	<path fill="#F2F2F2" d="M228.111,54.186c0.593-0.309,1.093-0.464,1.501-0.464c0.406,0,0.611,0.218,0.611,0.65v0.186
		c-5.707,4.028-11.728,7.807-18.064,11.339s-10.357,5.298-12.062,5.298c-1.706,0-3.132-0.264-4.28-0.79
		c-1.149-0.527-1.723-1.13-1.723-1.813c0-0.681,0.222-1.254,0.667-1.719c0.444-0.465,0.851-0.697,1.223-0.697
		c0.37,0,0.981,0.481,1.834,1.441c0.852,0.961,1.685,1.44,2.501,1.44c1.704,0,3.038-1.518,4.003-4.554
		c0.962-3.035,1.444-5.126,1.444-6.273c0-1.146-0.094-1.72-0.277-1.72c-0.187,0-0.353,0.063-0.5,0.186l-3.225,2.138l-0.444-1.394
		c4.669-3.098,7.373-5.173,8.115-6.228c0.444-0.99,1.073-1.487,1.89-1.487c0.518,0,0.778,0.155,0.778,0.465
		c0,0.311-0.261,0.976-0.778,1.998c-0.52,1.022-1.205,3.332-2.057,6.924c-0.853,3.594-1.278,5.669-1.278,6.227
		s0.185,0.836,0.556,0.836c5.187-2.663,10.673-5.979,16.453-9.945L228.111,54.186z"/>
</g>
</svg>
