<?xml version="1.0" encoding="utf-8"?>
<!-- Generator: Adobe Illustrator 27.2.0, SVG Export Plug-In . SVG Version: 6.00 Build 0)  -->
<svg version="1.1" id="Layer_1" xmlns="http://www.w3.org/2000/svg" xmlns:xlink="http://www.w3.org/1999/xlink" x="0px" y="0px"
	 viewBox="0 0 177.18 177.65" style="enable-background:new 0 0 177.18 177.65;" xml:space="preserve">
<style type="text/css">
	.st0{fill:#FFFFFF;}
</style>
<g>
	<path class="st0" d="M141.64,70.9c0,39.36-31.4,70.78-70.71,70.76C31.55,141.65,0.13,110.25,0,71.07C-0.13,31.8,31.85-0.31,71.66,0
		C110.27,0.3,141.64,31.84,141.64,70.9z M71.13,118.22c26.21-0.26,47.37-21.69,47.07-47.67c-0.3-26.29-21.51-47.16-47.72-46.96
		c-26.1,0.2-47.17,21.53-46.92,47.5C23.8,97.36,45.13,118.48,71.13,118.22z"/>
	<path class="st0" d="M177.18,161.23c-5.25,5.31-10.7,10.81-16.24,16.42c-15.05-14.98-29.37-29.24-43.51-43.31
		c5.69-5.68,11.14-11.13,16.44-16.43C147.9,131.95,162.18,146.24,177.18,161.23z"/>
</g>
</svg>
