<?xml version="1.0" encoding="utf-8"?>
<!-- Generator: Adobe Illustrator 27.2.0, SVG Export Plug-In . SVG Version: 6.00 Build 0)  -->
<svg version="1.1" id="Layer_1" xmlns="http://www.w3.org/2000/svg" xmlns:xlink="http://www.w3.org/1999/xlink" x="0px" y="0px"
	 viewBox="0 0 24 24" style="enable-background:new 0 0 24 24;" xml:space="preserve">
<style type="text/css">
	.st0{clip-path:url(#SVGID_00000167370499699775767040000005911992913864462999_);}
	.st1{fill:#191919;}
	.st2{clip-path:url(#SVGID_00000040547678892081875130000006627984765367247286_);}
	.st3{fill:#FFFFFF;}
	.st4{clip-path:url(#SVGID_00000081638103748022145290000003597125381865496735_);}
	.st5{clip-path:url(#SVGID_00000101818214191159667110000017983443372229569707_);}
	.st6{clip-path:url(#SVGID_00000062186801453547692590000016349984959234931641_);}
	.st7{clip-path:url(#SVGID_00000007425360717215613970000016504654846879216572_);}
	.st8{clip-path:url(#SVGID_00000082350814376063996800000012788018352198842013_);}
	.st9{clip-path:url(#SVGID_00000173131954062652418040000004147272537170554538_);}
</style>
<g>
	<g>
		<g>
			<defs>
				<rect id="SVGID_1_" x="0" width="24" height="24"/>
			</defs>
			<clipPath id="SVGID_00000163046336451763958230000013819590980177469079_">
				<use xlink:href="#SVGID_1_"  style="overflow:visible;"/>
			</clipPath>
			<g transform="translate(.574 1.502)" style="clip-path:url(#SVGID_00000163046336451763958230000013819590980177469079_);">
				<path class="st1" d="M11.4-0.5c-6.6,0-12,4.2-12,9.5c0,3.4,2.3,6.4,5.7,8.1c-0.3,0.9-0.9,3.4-1,3.9c-0.2,0.7,0.2,0.6,0.5,0.5
					c0.2-0.1,3.3-2.2,4.6-3.1c0.7,0.1,1.5,0.2,2.2,0.2c6.6,0,12-4.2,12-9.5S18.1-0.5,11.4-0.5"/>
				<path class="st1" d="M3.1,7.2h1.2c0,0,0,3.4,0,4.2c0,0.6,1.3,0.6,1.3,0l0-4.1h1.2c0.3,0,0.6-0.3,0.6-0.6c0-0.3-0.3-0.6-0.6-0.6
					C5.9,6,3.1,6,3.1,6c-0.3,0-0.6,0.3-0.5,0.6C2.5,7,2.8,7.2,3.1,7.2"/>
			</g>
		</g>
	</g>
	<g>
		<g>
			<defs>
				<path id="SVGID_00000064346717344874638430000001160507220837365923_" d="M3.6,8.7h1.2c0,0,0,3.4,0,4.2c0,0.6,1.3,0.6,1.3,0
					l0-4.1h1.2c0.3,0,0.6-0.3,0.6-0.6c0-0.3-0.3-0.6-0.6-0.6c-0.9,0-3.8,0-3.8,0c-0.3,0-0.6,0.3-0.5,0.6C3.1,8.5,3.3,8.7,3.6,8.7"/>
			</defs>
			<clipPath id="SVGID_00000104680948656918179900000018203952345507363487_">
				<use xlink:href="#SVGID_00000064346717344874638430000001160507220837365923_"  style="overflow:visible;"/>
			</clipPath>
			<g transform="translate(3.511 7.745)" style="clip-path:url(#SVGID_00000104680948656918179900000018203952345507363487_);">
				<path class="st3" d="M-0.6-0.2h5.2v6h-5.2V-0.2z"/>
			</g>
		</g>
	</g>
	<g>
		<g>
			<defs>
				<rect id="SVGID_00000106144110062926783740000003434236215434477746_" x="0" width="24" height="24"/>
			</defs>
			<clipPath id="SVGID_00000080176561203021663040000013128639818811263890_">
				<use xlink:href="#SVGID_00000106144110062926783740000003434236215434477746_"  style="overflow:visible;"/>
			</clipPath>
			<g transform="translate(.574 1.502)" style="clip-path:url(#SVGID_00000080176561203021663040000013128639818811263890_);">
				<path class="st3" d="M9,7.4l0.7,2.2H8.2L9,7.4z M8.2,6.4c-0.3,0.7-1.4,3.8-1.8,4.7c-0.3,0.6,0.9,1.1,1.1,0.5l0.2-0.9h2.3
					c0,0-0.1,0,0.2,0.8c0.2,0.6,1.4,0.2,1.2-0.4c-0.3-0.9-1.5-4.2-1.8-4.7C9.5,6.2,9.2,6,8.9,6.1C8.6,6,8.3,6.2,8.2,6.4"/>
			</g>
		</g>
	</g>
	<g>
		<g>
			<defs>
				<path id="SVGID_00000181061401341629670550000013889398584834672279_" d="M9.5,8.9l0.7,2.2H8.8L9.5,8.9z M8.8,7.9
					C8.5,8.6,7.4,11.8,7,12.6c-0.3,0.6,0.9,1.1,1.1,0.5l0.2-0.9h2.3c0,0-0.1,0,0.2,0.8c0.2,0.6,1.4,0.2,1.2-0.4
					c-0.3-0.9-1.5-4.2-1.8-4.7c-0.2-0.3-0.5-0.4-0.8-0.4C9.2,7.5,8.9,7.7,8.8,7.9"/>
			</defs>
			<clipPath id="SVGID_00000059295869815635064110000007752295673223645093_">
				<use xlink:href="#SVGID_00000181061401341629670550000013889398584834672279_"  style="overflow:visible;"/>
			</clipPath>
			<g transform="translate(7.205 7.768)" style="clip-path:url(#SVGID_00000059295869815635064110000007752295673223645093_);">
				<path class="st3" d="M-0.5-0.2h5.5v6.1h-5.5V-0.2z"/>
			</g>
		</g>
	</g>
	<g>
		<g>
			<defs>
				<rect id="SVGID_00000103239944516536219940000000016496561726757281_" x="0" width="24" height="24"/>
			</defs>
			<clipPath id="SVGID_00000145041497699822531520000011495037056741416364_">
				<use xlink:href="#SVGID_00000103239944516536219940000000016496561726757281_"  style="overflow:visible;"/>
			</clipPath>
			<g transform="translate(.574 1.502)" style="clip-path:url(#SVGID_00000145041497699822531520000011495037056741416364_);">
				<path class="st3" d="M11.9,6.6c0,1.1,0,4.5,0,4.5s-0.1,0.7,0.5,0.7s1.9,0,2.5,0s0.6-1.2,0-1.2s-1.6,0-1.6,0v-4
					c-0.1-0.4-0.4-0.6-0.8-0.6C12.2,6.1,11.9,6.3,11.9,6.6"/>
			</g>
		</g>
	</g>
	<g>
		<g>
			<defs>
				<path id="SVGID_00000065049735532534378540000006827641261817045163_" d="M12.5,8.1c0,1.1,0,4.5,0,4.5s-0.1,0.7,0.5,0.7
					s1.9,0,2.5,0c0.6,0,0.6-1.2,0-1.2c-0.6,0-1.6,0-1.6,0v-4c-0.1-0.4-0.4-0.6-0.8-0.6C12.7,7.6,12.5,7.8,12.5,8.1"/>
			</defs>
			<clipPath id="SVGID_00000118374449279770055570000016614506079658133377_">
				<use xlink:href="#SVGID_00000065049735532534378540000006827641261817045163_"  style="overflow:visible;"/>
			</clipPath>
			<g transform="translate(12.453 7.769)" style="clip-path:url(#SVGID_00000118374449279770055570000016614506079658133377_);">
				<path class="st3" d="M-0.1-0.2h3.7v5.8h-3.7V-0.2z"/>
			</g>
		</g>
	</g>
	<g>
		<g>
			<defs>
				<rect id="SVGID_00000057131528783465591240000007660401276325678747_" x="0" width="24" height="24"/>
			</defs>
			<clipPath id="SVGID_00000048476677397023191180000005432239220141874078_">
				<use xlink:href="#SVGID_00000057131528783465591240000007660401276325678747_"  style="overflow:visible;"/>
			</clipPath>
			<g transform="translate(.574 1.502)" style="clip-path:url(#SVGID_00000048476677397023191180000005432239220141874078_);">
				<path class="st3" d="M15.6,6.5c0,0.5,0,4.7,0,5c0,0.5,1.3,0.5,1.3,0V9.8l0.4-0.3l1.6,2.2c0.3,0.4,1.4-0.4,1-0.8l-1.7-2.3
					c0,0,1.2-1.3,1.6-1.7c0.3-0.3-0.6-1.1-0.8-0.8c-0.3,0.3-2.1,2.1-2.1,2.1s0-1.2,0-1.8c0-0.2-0.3-0.4-0.6-0.4
					C15.9,6.1,15.6,6.2,15.6,6.5"/>
			</g>
		</g>
	</g>
	<g>
		<g>
			<defs>
				<path id="SVGID_00000170252502660266138180000001120934569848239270_" d="M16.2,8c0,0.5,0,4.7,0,5c0,0.5,1.3,0.5,1.3,0v-1.7
					l0.4-0.3l1.6,2.2c0.3,0.4,1.4-0.4,1-0.8l-1.7-2.3c0,0,1.2-1.3,1.6-1.7c0.3-0.3-0.6-1.1-0.8-0.8c-0.3,0.3-2.1,2.1-2.1,2.1
					s0-1.2,0-1.8c0-0.2-0.3-0.4-0.6-0.4C16.5,7.6,16.2,7.7,16.2,8"/>
			</defs>
			<clipPath id="SVGID_00000037670479093247353310000011772474607327279513_">
				<use xlink:href="#SVGID_00000170252502660266138180000001120934569848239270_"  style="overflow:visible;"/>
			</clipPath>
			<g transform="translate(15.974 7.771)" style="clip-path:url(#SVGID_00000037670479093247353310000011772474607327279513_);">
				<path class="st3" d="M0.2-0.4h4.6v6.3H0.2V-0.4z"/>
			</g>
		</g>
	</g>
</g>
</svg>
