<?xml version="1.0" encoding="utf-8"?>
<!-- Generator: Adobe Illustrator 27.2.0, SVG Export Plug-In . SVG Version: 6.00 Build 0)  -->
<svg version="1.1" id="Layer_1" xmlns="http://www.w3.org/2000/svg" xmlns:xlink="http://www.w3.org/1999/xlink" x="0px" y="0px"
	 viewBox="0 0 24 24" style="enable-background:new 0 0 24 24;" xml:space="preserve">
<style type="text/css">
	.st0{clip-path:url(#SVGID_00000084530328553745718270000003779724867622221963_);}
	.st1{fill:#191919;}
	.st2{fill:#FFFFFF;}
</style>
<g>
	<g>
		<defs>
			<rect id="SVGID_1_" x="0" y="0" width="24" height="24"/>
		</defs>
		<clipPath id="SVGID_00000127732725171975116380000011776264891058205335_">
			<use xlink:href="#SVGID_1_"  style="overflow:visible;"/>
		</clipPath>
		<g transform="translate(.593 4.015)" style="clip-path:url(#SVGID_00000127732725171975116380000011776264891058205335_);">
			<path class="st1" d="M22.9,1.6c-0.3-1.1-1.1-2-2.1-2.4c-1.9-0.6-9.4-0.6-9.4-0.6S3.9-1.3,2-0.8C1-0.5,0.2,0.4-0.1,1.6
				C-0.4,3.7-0.6,5.8-0.6,8c0,2.1,0.2,4.3,0.5,6.4c0.3,1.1,1.1,2,2.1,2.4c1.9,0.6,9.4,0.6,9.4,0.6s7.5,0,9.4-0.6
				c1-0.3,1.8-1.2,2.1-2.4c0.3-2.1,0.5-4.3,0.5-6.4C23.4,5.8,23.3,3.7,22.9,1.6"/>
			<path class="st2" d="M9,11.6L15.2,8L9,4.4V11.6z"/>
		</g>
	</g>
</g>
</svg>
