<?xml version="1.0" encoding="utf-8"?>
<!-- Generator: Adobe Illustrator 27.2.0, SVG Export Plug-In . SVG Version: 6.00 Build 0)  -->
<svg version="1.1" id="Layer_1" xmlns="http://www.w3.org/2000/svg" xmlns:xlink="http://www.w3.org/1999/xlink" x="0px" y="0px"
	 viewBox="0 0 95 49.8" style="enable-background:new 0 0 95 49.8;" xml:space="preserve">
<style type="text/css">
	.st0{fill:#FFFFFF;}
</style>
<g>
	<path class="st0" d="M18.2,45.8h-2.3l-1.3-4h-4.5l-1.2,4H6.6L11,32.1h2.7L18.2,45.8z M14.2,40.1L13,36.5c-0.1-0.4-0.4-1.2-0.7-2.6
		h0c-0.1,0.6-0.4,1.4-0.7,2.6l-1.1,3.6H14.2z"/>
	<path class="st0" d="M29.5,40.7c0.1,1.5-0.4,2.9-1.4,4c-0.8,0.9-1.9,1.3-3,1.3c-1.1,0.1-2.2-0.5-2.8-1.4h0v5.2H20V39.1
		c0-1.1,0-2.1-0.1-3.3h1.9l0.1,1.6h0c1.2-1.8,3.6-2.3,5.4-1.1c0.3,0.2,0.6,0.5,0.8,0.7C29.1,38.1,29.5,39.4,29.5,40.7z M27.2,40.7
		c0-0.8-0.2-1.7-0.6-2.4c-0.4-0.6-1.2-1-1.9-1c-0.5,0-1.1,0.2-1.5,0.5c-0.4,0.4-0.7,0.9-0.9,1.4c-0.1,0.2-0.1,0.4-0.1,0.7v1.6
		c0,0.7,0.2,1.3,0.7,1.8c0.4,0.5,1.1,0.8,1.7,0.7c0.8,0,1.5-0.3,1.9-1C27,42.5,27.3,41.6,27.2,40.7L27.2,40.7z"/>
	<path class="st0" d="M40.8,40.7c0.1,1.5-0.4,2.9-1.4,4c-0.8,0.9-1.9,1.3-3,1.3c-1.1,0.1-2.2-0.5-2.8-1.4h0v5.2h-2.2V39.1
		c0-1.1,0-2.1-0.1-3.3h1.9l0.1,1.6h0c1.2-1.8,3.6-2.3,5.4-1.1c0.3,0.2,0.6,0.5,0.8,0.7C40.4,38.1,40.8,39.4,40.8,40.7z M38.5,40.7
		c0-0.8-0.2-1.7-0.7-2.4c-0.4-0.6-1.1-1-1.9-1c-0.5,0-1.1,0.2-1.5,0.5c-0.4,0.4-0.7,0.9-0.9,1.4c-0.1,0.2-0.1,0.4-0.1,0.7v1.6
		c0,0.7,0.2,1.3,0.7,1.8c0.4,0.5,1.1,0.8,1.7,0.7c0.8,0,1.5-0.3,1.9-1C38.3,42.5,38.6,41.6,38.5,40.7L38.5,40.7z"/>
	<path class="st0" d="M53.4,42c0,1.1-0.4,2.1-1.2,2.8c-1,0.9-2.4,1.3-3.7,1.2c-1.2,0.1-2.5-0.2-3.6-0.9l0.5-1.8
		c1,0.6,2.1,0.9,3.2,0.9c0.7,0,1.4-0.2,1.9-0.6c0.5-0.4,0.7-0.9,0.7-1.5c0-0.5-0.2-1-0.6-1.4c-0.6-0.5-1.2-0.8-1.9-1.1
		c-2.4-0.9-3.6-2.2-3.6-3.9c0-1.1,0.4-2.1,1.3-2.8c0.9-0.8,2.1-1.1,3.4-1.1c1.1,0,2.1,0.2,3.1,0.6l-0.5,1.8
		c-0.8-0.4-1.7-0.6-2.6-0.6c-0.7,0-1.3,0.2-1.8,0.6c-0.4,0.3-0.6,0.8-0.5,1.2c0,0.5,0.2,1,0.6,1.3c0.6,0.5,1.3,0.8,2,1.1
		c1,0.3,1.9,0.9,2.6,1.7C53.1,40.3,53.4,41.1,53.4,42z"/>
	<path class="st0" d="M60.6,37.6h-2.4v4.8c0,1.2,0.4,1.8,1.3,1.8c0.3,0,0.7,0,1-0.1l0.1,1.7C60,46,59.4,46,58.8,46
		c-0.8,0-1.5-0.2-2-0.8c-0.6-0.8-0.8-1.7-0.7-2.7v-5h-1.4v-1.6H56v-1.8l2.2-0.6v2.5h2.4V37.6z"/>
	<path class="st0" d="M71.5,40.7c0.1,1.4-0.4,2.7-1.3,3.7c-0.9,1-2.3,1.5-3.6,1.5c-1.3,0.1-2.6-0.5-3.5-1.4c-0.9-1-1.3-2.3-1.3-3.6
		c-0.1-1.4,0.4-2.7,1.3-3.7c0.9-1,2.2-1.5,3.6-1.5c1.3-0.1,2.6,0.5,3.5,1.4C71.1,38.2,71.5,39.4,71.5,40.7z M69.2,40.8
		c0-0.8-0.2-1.6-0.6-2.3c-0.4-0.7-1.1-1.2-2-1.2c-0.8,0-1.6,0.4-2,1.2C64.2,39.2,64,40,64,40.9c0,0.8,0.2,1.6,0.6,2.3
		c0.6,1.1,2,1.5,3.1,0.9c0.4-0.2,0.7-0.5,0.9-0.9C69,42.5,69.2,41.6,69.2,40.8L69.2,40.8z"/>
	<path class="st0" d="M78.5,37.8c-0.2,0-0.5-0.1-0.7-0.1c-0.7,0-1.4,0.3-1.8,0.9c-0.4,0.6-0.6,1.2-0.5,1.9v5.1h-2.2l0-6.7
		c0-1.1,0-2.2-0.1-3.1h1.9l0.1,1.9h0.1c0.2-0.6,0.6-1.2,1.1-1.6c0.5-0.3,1-0.5,1.6-0.5c0.2,0,0.4,0,0.6,0L78.5,37.8z"/>
	<path class="st0" d="M88.4,40.4c0,0.3,0,0.7-0.1,1h-6.6c0,0.8,0.3,1.7,1,2.2c0.6,0.5,1.4,0.7,2.2,0.7c0.9,0,1.8-0.1,2.7-0.5
		l0.3,1.5c-1.1,0.4-2.2,0.6-3.3,0.6c-1.3,0.1-2.6-0.4-3.6-1.3c-0.9-1-1.4-2.3-1.3-3.6c0-1.3,0.4-2.6,1.2-3.7c0.8-1,2.1-1.6,3.5-1.6
		c1.3-0.1,2.5,0.5,3.2,1.6C88.1,38.2,88.4,39.3,88.4,40.4z M86.3,39.8c0-0.6-0.1-1.2-0.4-1.7c-0.4-0.6-1-0.9-1.8-0.9
		c-0.7,0-1.3,0.3-1.7,0.9c-0.4,0.5-0.6,1.1-0.7,1.7L86.3,39.8z"/>
</g>
<g>
	<path class="st0" d="M55.1,14.8c0-2.2,1.2-4.2,3-5.3C56.9,7.8,55,6.8,53,6.7C50.8,6.5,48.8,8,47.7,8c-1.1,0-2.8-1.3-4.6-1.2
		c-2.4,0.1-4.6,1.4-5.7,3.5c-2.5,4.3-0.6,10.6,1.7,14c1.2,1.7,2.6,3.6,4.4,3.5c1.8-0.1,2.4-1.1,4.6-1.1c2.1,0,2.7,1.1,4.6,1.1
		c1.9,0,3.1-1.7,4.2-3.4c0.9-1.2,1.5-2.5,1.9-3.9C56.5,19.4,55.1,17.2,55.1,14.8L55.1,14.8z"/>
	<path class="st0" d="M51.6,4.4c1-1.2,1.5-2.8,1.4-4.4c-1.6,0.2-3,0.9-4.1,2.1c-1,1.2-1.6,2.7-1.5,4.3C49.1,6.4,50.6,5.7,51.6,4.4z"
		/>
</g>
</svg>
