<?xml version="1.0" encoding="utf-8"?>
<!-- Generator: Adobe Illustrator 27.2.0, SVG Export Plug-In . SVG Version: 6.00 Build 0)  -->
<svg version="1.1" id="Layer_1" xmlns="http://www.w3.org/2000/svg" xmlns:xlink="http://www.w3.org/1999/xlink" x="0px" y="0px"
	 viewBox="0 0 95 49.8" style="enable-background:new 0 0 95 49.8;" xml:space="preserve">
<style type="text/css">
	.st0{fill:#FFFFFF;}
	.st1{opacity:0.41;fill:#FFFFFF;}
</style>
<path class="st0" d="M30.3,36c-2.6,0-4.7,2.2-4.7,4.8c0,2.6,2.2,4.7,4.8,4.7c2.6,0,4.7-2.1,4.7-4.7c0-2.6-2-4.7-4.6-4.7
	C30.4,36,30.4,36,30.3,36 M30.3,43.6c-1.6,0.1-3-1.1-3.1-2.7c-0.1-1.6,1.1-3,2.7-3.1s3,1.1,3.1,2.7c0,0.1,0,0.1,0,0.2
	C33.1,42.3,31.9,43.6,30.3,43.6C30.4,43.6,30.4,43.6,30.3,43.6L30.3,43.6z M19.9,36c-2.6,0-4.7,2.2-4.7,4.8c0,2.6,2.2,4.7,4.8,4.7
	c2.6,0,4.7-2.1,4.7-4.7c0-2.6-2-4.7-4.6-4.7C20,36,20,36,19.9,36z M19.9,43.6c-1.6,0.1-3-1.1-3.1-2.7c-0.1-1.6,1.1-3,2.7-3.1
	s3,1.1,3.1,2.7c0,0.1,0,0.1,0,0.2C22.7,42.3,21.5,43.6,19.9,43.6C20,43.6,19.9,43.6,19.9,43.6L19.9,43.6z M7.5,37.5v2h4.8
	c-0.1,0.9-0.5,1.8-1.1,2.5c-1,1-2.3,1.5-3.7,1.5c-3,0-5.3-2.5-5.3-5.4c0-2.9,2.4-5.2,5.3-5.3c1.4,0,2.7,0.5,3.6,1.4l1.4-1.4
	c-1.4-1.3-3.2-2.1-5.1-2C3.4,30.7,0.1,33.9,0,38s3.2,7.4,7.2,7.5c0.1,0,0.2,0,0.2,0c1.9,0.1,3.8-0.7,5.2-2.1c1.4-1.6,2-3.8,1.6-6
	L7.5,37.5z M58.3,39c-0.6-1.8-2.2-3-4.1-3c-2.5,0-4.5,2-4.5,4.5c0,0.1,0,0.1,0,0.2c-0.1,2.6,2,4.7,4.6,4.7c0.1,0,0.1,0,0.2,0
	c1.6,0,3.1-0.8,4-2.1l-1.6-1.1c-0.5,0.8-1.4,1.3-2.3,1.3c-1,0-1.9-0.5-2.3-1.4l6.4-2.6L58.3,39z M51.8,40.6c-0.1-1.4,1-2.7,2.4-2.8
	c0,0,0,0,0.1,0c0.7-0.1,1.4,0.3,1.8,1L51.8,40.6z M46.6,45.2h2.1V31.3h-2.1V45.2z M43.2,37.1L43.2,37.1c-0.7-0.7-1.6-1.1-2.6-1.1
	c-2.6,0.1-4.7,2.3-4.6,4.9c0.1,2.5,2.1,4.5,4.6,4.6c1,0,1.9-0.4,2.5-1.1h0.1v0.7c0,1.8-1,2.8-2.5,2.8c-1.1,0-2-0.7-2.4-1.7L36.4,47
	c0.7,1.7,2.4,2.8,4.2,2.8c2.5,0,4.5-1.4,4.5-4.9v-8.5h-2L43.2,37.1z M40.8,43.6c-1.6-0.1-2.8-1.5-2.6-3.1c0.1-1.4,1.2-2.5,2.6-2.6
	c1.6,0.2,2.7,1.7,2.5,3.2C43.1,42.4,42.1,43.5,40.8,43.6z M68.1,31.3h-5v14h2.1v-5.3h2.9c2.4,0.1,4.4-1.7,4.6-4.1
	c0.1-2.4-1.7-4.4-4.1-4.6C68.4,31.2,68.2,31.2,68.1,31.3L68.1,31.3z M68.1,38h-3v-4.8h3c1.3,0,2.4,1,2.4,2.3
	C70.6,36.9,69.5,38,68.1,38C68.2,38,68.2,38,68.1,38L68.1,38z M81,36c-1.6-0.1-3,0.7-3.7,2.1l1.9,0.8c0.4-0.7,1.1-1.1,1.9-1
	c1.1-0.1,2.1,0.7,2.2,1.8v0.1c-0.7-0.4-1.4-0.5-2.2-0.5c-2,0-4,1.1-4,3.1c0.1,1.8,1.6,3.2,3.4,3.1c0,0,0.1,0,0.1,0
	c1.1,0.1,2.1-0.5,2.7-1.4h0.1v1.1h2v-5.4C85.3,37.4,83.4,36,81,36L81,36z M80.8,43.6c-0.7,0-1.6-0.3-1.6-1.2c0-1.1,1.2-1.5,2.2-1.5
	c0.7,0,1.3,0.1,1.9,0.5C83.1,42.7,82.1,43.6,80.8,43.6L80.8,43.6z M92.7,36.3l-2.4,6h-0.1l-2.5-6h-2.3l3.7,8.5L87,49.4h2.2L95,36.3
	L92.7,36.3z M73.8,45.2h2.1V31.3h-2.1V45.2z"/>
<g>
	<path class="st1" d="M35.7,2.4c0,0.2-0.1,0.4-0.1,0.6v20.6c0,0.2,0,0.5,0.1,0.7l10.9-10.9L35.7,2.4z"/>
	<path class="st0" d="M52.4,7.5L40,0.4c-1.8-1-4,0.1-4.3,2l11,11L52.4,7.5z"/>
	<path class="st1" d="M57.9,10.7l-5.5-3.2l-5.8,5.8l5.7,5.7l5.6-3.2C59.8,14.7,59.8,11.8,57.9,10.7z"/>
	<path class="st0" d="M35.7,24.3c0.4,1.8,2.6,2.9,4.3,1.9L52.3,19l-5.7-5.7L35.7,24.3z"/>
</g>
</svg>
