<?xml version="1.0" encoding="utf-8"?>
<!-- Generator: Adobe Illustrator 17.0.0, SVG Export Plug-In . SVG Version: 6.00 Build 0)  -->
<!DOCTYPE svg PUBLIC "-//W3C//DTD SVG 1.1//EN" "http://www.w3.org/Graphics/SVG/1.1/DTD/svg11.dtd">
<svg version="1.1" id="레이어_1" xmlns="http://www.w3.org/2000/svg" xmlns:xlink="http://www.w3.org/1999/xlink" x="0px"
	 y="0px" width="224.028px" height="73.479px" viewBox="0 0 224.028 73.479" enable-background="new 0 0 224.028 73.479"
	 xml:space="preserve">
<g>
	<polygon points="106.896,16.091 99.365,16.091 99.365,5.806 92.573,5.806 92.573,33.125 99.365,33.125 99.365,21.768 
		106.896,21.768 106.896,33.125 113.476,33.125 113.476,5.806 106.896,5.806 	"/>
	<polygon points="155.838,5.806 148.972,5.806 148.972,33.125 162.678,33.125 165.499,27.129 155.838,27.129 	"/>
	<polygon points="175.523,5.806 168.657,5.806 168.657,33.125 182.364,33.125 185.185,27.129 175.523,27.129 	"/>
	<polygon points="193.426,15.214 188.89,5.806 182.081,5.806 190.106,22.002 190.106,33.453 193.426,33.453 196.746,33.453 
		196.746,22.328 204.773,5.806 198.289,5.806 	"/>
	<path d="M217.202,16.408c-1.704-0.603-5.116-1.702-4.75-4.1c0.22-1.449,1.646-1.984,2.933-1.984c2.094,0,3.827,0.562,5.648,1.565
		l0.063,0.034l0.138,0.08l0.091-0.143l2.431-3.807l0.081-0.127l-0.104-0.096c-2.03-1.902-5.484-2.811-8.192-2.811
		c-2.861,0-5.012,0.906-6.813,2.529c-2.146,1.935-3.257,5.427-1.959,8.102c0.661,1.364,1.618,2.613,2.854,3.505
		c1.175,0.848,2.568,1.412,3.871,2.028c1.617,0.764,4.363,1.427,4.549,3.614c0.078,0.923-0.255,1.957-0.942,2.589
		c-2.008,1.843-5.228,0.339-7.379-0.442c-0.436-0.148-0.849-0.292-1.227-0.418l-0.139-0.041l-0.063,0.127l-2.395,4.449l-0.076,0.142
		l0.126,0.087c0.311,0.212,0.62,0.396,0.976,0.573c1.536,0.784,4.814,1.88,7.292,1.88c3.12,0,5.665-0.877,7.581-2.597
		c1.851-1.685,2.133-3.888,2.133-6.554c0-2.001-0.625-3.687-1.852-5.005C220.9,18.312,219.696,17.244,217.202,16.408"/>
	<path d="M130.406,41.569c-7.415,0-14.205,6.209-14.205,14.358c0,8.353,6.79,14.566,14.205,14.566
		c7.609,0,14.398-6.214,14.398-14.566C144.805,47.778,138.015,41.569,130.406,41.569 M130.406,64.072
		c-4.946,0-7.824-4.074-7.824-8.145c0-4.075,2.878-7.931,7.824-7.931c5.141,0,8.018,3.855,8.018,7.931
		C138.424,59.998,135.547,64.072,130.406,64.072"/>
	<path d="M131.657,5.244c-7.387,0-14.151,6.114-14.151,14.143c0,8.226,6.764,14.347,14.151,14.347c7.58,0,14.344-6.12,14.344-14.347
		C146.001,11.358,139.237,5.244,131.657,5.244 M131.657,27.408c-4.927,0-7.795-4.014-7.795-8.021c0-4.014,2.867-7.813,7.795-7.813
		c5.121,0,7.988,3.799,7.988,7.813C139.645,23.394,136.779,27.408,131.657,27.408"/>
	<polygon points="148.075,69.95 154.526,69.95 154.526,58.662 161.663,58.662 161.663,53.092 154.526,53.092 154.526,47.437 
		161.772,47.437 164.594,41.879 148.075,41.879 	"/>
	<polygon points="167.651,69.95 174.497,69.95 174.497,58.662 181.783,58.662 181.783,53.092 174.497,53.092 174.497,47.437 
		181.679,47.437 184.501,41.879 167.651,41.879 	"/>
	<path d="M105.82,64.153c-4.997,0-7.909-4.089-7.909-8.173c0-4.09,2.913-7.961,7.909-7.961c3.014,0,5.256,1.313,6.614,3.211
		l3.166-5.876c-2.631-2.365-6.113-3.785-9.78-3.785c-7.492,0-14.359,6.23-14.359,14.411c0,8.382,6.867,14.618,14.359,14.618
		c3.47,0,6.771-1.268,9.352-3.436l-3.144-5.825C110.654,63.004,108.558,64.153,105.82,64.153"/>
	<polygon points="201.296,47.363 204.124,41.988 187.473,41.988 187.473,69.744 203.393,69.744 203.393,64.295 194.291,64.295 
		194.291,58.444 201.629,58.444 201.629,53.074 194.291,53.074 194.291,47.363 	"/>
	<polygon points="221.2,47.363 224.028,41.988 207.376,41.988 207.376,69.744 223.296,69.744 223.296,64.295 214.194,64.295 
		214.194,58.444 221.533,58.444 221.533,53.074 214.194,53.074 214.194,47.363 	"/>
	<polygon fill="#C0312F" points="35.174,6.75 38.507,0 38.527,0 41.859,6.75 49.326,7.839 43.926,13.109 45.203,20.529 
		38.527,17.028 38.527,17.038 38.498,17.028 31.832,20.529 33.108,13.109 27.708,7.839 	"/>
	<path fill="#C0312F" d="M0,15.132c0-2.389,1.93-4.329,4.31-4.329c2.398,0,4.329,1.94,4.329,4.329c0,2.389-1.931,4.329-4.329,4.329
		C1.93,19.46,0,17.521,0,15.132"/>
	<path fill="#C0312F" d="M68.3,15.132c0-2.389,1.931-4.329,4.311-4.329c2.398,0,4.329,1.94,4.329,4.329
		c0,2.389-1.931,4.329-4.329,4.329C70.231,19.46,68.3,17.521,68.3,15.132"/>
	<path fill="#C0312F" d="M3.974,73.479l-1.815-49.33l15.667,9.959l1.26,37.848C13.741,72.086,8.667,73.228,3.974,73.479"/>
	<path fill="#C0312F" d="M73.064,73.479c-4.693-0.251-9.768-1.393-15.111-1.523l1.259-37.848l15.668-9.959L73.064,73.479"/>
	<path fill="#C0312F" d="M52.955,71.663c-4.971-0.111-9.221-0.467-14.537-0.467c-5.345,0-9.648,0.356-14.61,0.467l-0.87-37.445
		l15.48-8.461l15.574,8.461L52.955,71.663z"/>
</g>
</svg>
